<svg version="1.1" xmlns="http://www.w3.org/2000/svg" xmlns:xlink="http://www.w3.org/1999/xlink" width="800px" height="800px" viewBox="0,0,256,256"><g fill="#6943a4" fill-rule="evenodd" stroke="none" stroke-width="1" stroke-linecap="butt" stroke-linejoin="miter" stroke-miterlimit="10" stroke-dasharray="" stroke-dashoffset="0" font-family="none" font-weight="none" font-size="none" text-anchor="none" style="mix-blend-mode: normal"><g transform="translate(25.6,0) scale(17.06667,17.06667)"><path transform="translate(-568,-105)" d="M574,120c1.32443,0 6,-5.94501 6,-9.16667c0,-3.22166 -2.68629,-5.83333 -6,-5.83333c-3.31371,0 -6,2.61167 -6,5.83333c0,3.22166 4.67557,9.16667 6,9.16667zM574,113.33333c1.42016,0 2.57143,-1.11929 2.57143,-2.5c0,-1.38071 -1.15127,-2.5 -2.57143,-2.5c-1.42016,0 -2.57143,1.11929 -2.57143,2.5c0,1.38071 1.15127,2.5 2.57143,2.5z"></path></g></g></svg>