<svg version="1.1" xmlns="http://www.w3.org/2000/svg" xmlns:xlink="http://www.w3.org/1999/xlink" width="800px" height="800px" viewBox="0,0,256,256"><g fill="none" fill-rule="none" stroke="none" stroke-width="1" stroke-linecap="butt" stroke-linejoin="miter" stroke-miterlimit="10" stroke-dasharray="" stroke-dashoffset="0" font-family="none" font-weight="none" font-size="none" text-anchor="none" style="mix-blend-mode: normal"><g transform="scale(8,8)"><g><path d="M0,0h32v32h-32z" fill="none" fill-rule="evenodd"></path><g fill="#6943a4" fill-rule="nonzero"><path d="M32,16c0,-8.83636 -7.16364,-16 -16,-16c-8.83636,0 -16,7.16364 -16,16c0,8.83636 7.16364,16 16,16c8.83636,0 16,-7.16364 16,-16zM1.45455,16c0,-8.03345 6.512,-14.54545 14.54545,-14.54545c8.03345,0 14.54545,6.512 14.54545,14.54545c0,8.03345 -6.512,14.54545 -14.54545,14.54545c-8.03345,0 -14.54545,-6.512 -14.54545,-14.54545z"></path><path d="M16.61382,25.23491v-9.23491h3.04727l0.48145,-3.06036h-3.52873v-1.53455c0,-0.79855 0.26182,-1.56073 1.408,-1.56073h2.29091v-3.05455h-3.25236c-2.73455,0 -3.48073,1.80073 -3.48073,4.29673v1.85164h-1.87636v3.06182h1.87636v9.23491z"></path></g></g></g></g></svg>