<svg version="1.1" xmlns="http://www.w3.org/2000/svg" xmlns:xlink="http://www.w3.org/1999/xlink" width="800px" height="800px" viewBox="0,0,256,256"><g fill="none" fill-rule="nonzero" stroke="#6943a4" stroke-width="2" stroke-linecap="round" stroke-linejoin="round" stroke-miterlimit="10" stroke-dasharray="" stroke-dashoffset="0" font-family="none" font-weight="none" font-size="none" text-anchor="none" style="mix-blend-mode: normal"><g transform="scale(10.66667,10.66667)"><path d="M16.65,7.2h0.01M8,20h8c2.2091,0 4,-1.7909 4,-4v-8c0,-2.20914 -1.7909,-4 -4,-4h-8c-2.20914,0 -4,1.79086 -4,4v8c0,2.2091 1.79086,4 4,4zM15.75,12c0,2.0711 -1.6789,3.75 -3.75,3.75c-2.07107,0 -3.75,-1.6789 -3.75,-3.75c0,-2.07107 1.67893,-3.75 3.75,-3.75c2.0711,0 3.75,1.67893 3.75,3.75z"></path></g></g></svg>