<svg version="1.1" xmlns="http://www.w3.org/2000/svg" xmlns:xlink="http://www.w3.org/1999/xlink" width="800px" height="800px" viewBox="0,0,256,256"><g fill="none" fill-rule="nonzero" stroke="#6943a4" stroke-width="2" stroke-linecap="round" stroke-linejoin="round" stroke-miterlimit="10" stroke-dasharray="" stroke-dashoffset="0" font-family="none" font-weight="none" font-size="none" text-anchor="none" style="mix-blend-mode: normal"><g transform="scale(10.66667,10.66667)"><path d="M7.45203,13.1793c-1.10794,-2.2611 0.39987,-6.66733 5.47187,-5.94699c5.5865,0.79343 4.5811,9.47729 -0.0768,9.13809c-1.4739,-0.1073 -2.0312,-1.3287 -2.1767,-2.5766M10.6704,13.7938c-0.1103,-0.946 0.0161,-1.9072 0.1592,-2.4096c0.2442,-0.8572 0.649,-0.7406 0.3532,0.3932c-0.144,0.5518 -0.3196,1.2445 -0.5124,2.0164zM10.6704,13.7938c-0.5144,2.0599 -1.15047,4.6848 -1.63081,6.708M9.03959,20.5018c0.92713,0.3228 1.92331,0.4982 2.96041,0.4982c4.9706,0 9,-4.0294 9,-9c0,-4.97056 -4.0294,-9 -9,-9c-4.97056,0 -9,4.02944 -9,9c0,3.9334 2.52335,7.2775 6.03959,8.5018z"></path></g></g></svg>