<svg version="1.1" xmlns="http://www.w3.org/2000/svg" xmlns:xlink="http://www.w3.org/1999/xlink" width="800px" height="800px" viewBox="0,0,256,256"><g fill="#6943a4" fill-rule="nonzero" stroke="none" stroke-width="1" stroke-linecap="butt" stroke-linejoin="miter" stroke-miterlimit="10" stroke-dasharray="" stroke-dashoffset="0" font-family="none" font-weight="none" font-size="none" text-anchor="none" style="mix-blend-mode: normal"><g transform="translate(71.5,-72.5) scale(0.5,0.5)"><g><path d="M113,145c-141.4,0 -256,114.6 -256,256c0,141.4 114.6,256 256,256c141.4,0 256,-114.6 256,-256c0,-141.4 -114.6,-256 -256,-256zM272.8,560.7c-20.8,20.8 -44.9,37.1 -71.8,48.4c-27.8,11.8 -57.4,17.7 -88,17.7c-30.5,0 -60.1,-6 -88,-17.7c-26.9,-11.4 -51.1,-27.7 -71.8,-48.4c-20.8,-20.8 -37.1,-44.9 -48.4,-71.8c-11.8,-27.8 -17.8,-57.4 -17.8,-87.9c0,-30.5 6,-60.1 17.7,-88c11.4,-26.9 27.7,-51.1 48.4,-71.8c20.9,-20.8 45,-37.1 71.9,-48.5c27.9,-11.7 57.5,-17.7 88,-17.7c30.5,0 60.1,6 88,17.7c26.9,11.4 51.1,27.7 71.8,48.4c20.8,20.8 37.1,44.9 48.4,71.8c11.8,27.8 17.7,57.4 17.7,88c0,30.5 -6,60.1 -17.7,88c-11.4,26.9 -27.7,51.1 -48.4,71.8z"></path><path d="M196.9,311.2h-167.8c0,0 -44.1,0 -44.1,44.1v91.5c0,0 0,44.1 44.1,44.1h167.8c0,0 44.1,0 44.1,-44.1v-91.5c0,0 0,-44.1 -44.1,-44.1zM78.9,450.3v-98.5l83.8,49.3z"></path></g></g></g></svg>